<svg width="25" height="25" viewBox="0 0 25 25" fill="none" xmlns="http://www.w3.org/2000/svg">
<g clip-path="url(#clip0_4_27)">
<path d="M18.4896 17.5781C18.6574 17.8024 18.8714 17.988 19.1172 18.1223C19.363 18.2565 19.6347 18.3364 19.9141 18.3564C20.1934 18.3764 20.4738 18.3361 20.7362 18.2382C20.9986 18.1403 21.2369 17.9872 21.4349 17.7891L22.6068 16.6172C22.9626 16.2488 23.1595 15.7555 23.155 15.2434C23.1506 14.7313 22.9451 14.2414 22.583 13.8793C22.2209 13.5172 21.731 13.3117 21.2189 13.3073C20.7068 13.3028 20.2135 13.4997 19.8451 13.8555L19.1732 14.5235" stroke="#07233D" stroke-width="0.78125" stroke-linecap="round" stroke-linejoin="round"/>
<path d="M20.052 16.7969C19.8843 16.5726 19.6703 16.387 19.4245 16.2528C19.1787 16.1185 18.9069 16.0386 18.6276 16.0186C18.3482 15.9986 18.0678 16.0389 17.8054 16.1368C17.543 16.2347 17.3047 16.3879 17.1067 16.5859L15.9349 17.7578C15.5791 18.1262 15.3822 18.6196 15.3867 19.1317C15.3911 19.6438 15.5965 20.1336 15.9587 20.4958C16.3208 20.8579 16.8106 21.0633 17.3228 21.0677C17.8349 21.0722 18.3282 20.8753 18.6966 20.5195L19.3645 19.8516" stroke="#07233D" stroke-width="0.78125" stroke-linecap="round" stroke-linejoin="round"/>
</g>
<path d="M11.4583 20.8334H4.16665C3.61411 20.8334 3.08421 20.6139 2.69351 20.2232C2.30281 19.8325 2.08331 19.3026 2.08331 18.75V5.20837C2.08331 4.65584 2.30281 4.12593 2.69351 3.73523C3.08421 3.34453 3.61411 3.12504 4.16665 3.12504H8.22915C8.57757 3.12162 8.92129 3.20565 9.22883 3.36944C9.53638 3.53322 9.79794 3.77152 9.98956 4.06254L10.8333 5.31254C11.023 5.60059 11.2813 5.83704 11.5849 6.00067C11.8885 6.1643 12.228 6.24998 12.5729 6.25004H20.8333C21.3858 6.25004 21.9158 6.46953 22.3065 6.86023C22.6972 7.25093 22.9166 7.78084 22.9166 8.33337V9.89587" stroke="#07233D" stroke-width="2.08333" stroke-linecap="round" stroke-linejoin="round"/>
<defs>
<clipPath id="clip0_4_27">
<rect width="9.375" height="9.375" fill="white" transform="translate(14.5833 12.5)"/>
</clipPath>
</defs>
</svg>
